<?xml version="1.0" standalone="yes"?>
<svg version="1.1" xmlns="http://www.w3.org/2000/svg" xmlns:xlink="http://www.w3.org/1999/xlink" xmlns:ev="http://www.w3.org/2001/xml-events" width="270" height="270">
<path style="fill:#ffffff; stroke:none;" d="M0 0L0 270L270 270L270 0L0 0z"/>
<path style="fill:#000000; stroke:none;" d="M10 10L10 80L80 80L80 10L10 10M90 10L90 50L110 50L110 40L120 40L120 50L130 50L130 30L120 30L120 10L90 10M130 10L130 20L150 20L150 40L140 40L140 60L120 60L120 70L110 70L110 80L100 80L100 60L90 60L90 80L100 80L100 90L110 90L110 80L120 80L120 70L130 70L130 90L120 90L120 100L90 100L90 110L120 110L120 120L110 120L110 140L120 140L120 130L130 130L130 140L140 140L140 130L130 130L130 120L140 120L140 110L150 110L150 120L160 120L160 130L150 130L150 150L140 150L140 160L130 160L130 170L120 170L120 160L110 160L110 150L90 150L90 140L80 140L80 130L100 130L100 120L80 120L80 110L50 110L50 120L80 120L80 130L40 130L40 140L50 140L50 150L40 150L40 160L30 160L30 170L10 170L10 180L30 180L30 170L40 170L40 180L50 180L50 170L60 170L60 180L90 180L90 190L100 190L100 180L110 180L110 190L120 190L120 210L130 210L130 220L140 220L140 240L130 240L130 250L120 250L120 240L110 240L110 230L120 230L120 220L100 220L100 210L110 210L110 200L90 200L90 220L100 220L100 240L90 240L90 260L100 260L100 240L110 240L110 250L120 250L120 260L170 260L170 250L140 250L140 240L150 240L150 220L140 220L140 210L130 210L130 200L160 200L160 210L170 210L170 220L160 220L160 240L180 240L180 250L190 250L190 240L200 240L200 250L230 250L230 260L260 260L260 250L250 250L250 230L260 230L260 200L250 200L250 210L240 210L240 200L230 200L230 190L240 190L240 170L250 170L250 160L240 160L240 150L250 150L250 140L260 140L260 130L250 130L250 120L240 120L240 110L250 110L250 100L260 100L260 90L220 90L220 100L210 100L210 90L200 90L200 100L210 100L210 110L220 110L220 120L200 120L200 130L180 130L180 140L160 140L160 130L170 130L170 120L180 120L180 90L170 90L170 80L180 80L180 60L170 60L170 50L180 50L180 40L170 40L170 30L180 30L180 10L160 10L160 20L150 20L150 10L130 10M190 10L190 80L260 80L260 10L190 10z"/>
<path style="fill:#ffffff; stroke:none;" d="M20 20L20 70L70 70L70 20L20 20M160 20L160 30L170 30L170 20L160 20M200 20L200 70L250 70L250 20L200 20z"/>
<path style="fill:#000000; stroke:none;" d="M30 30L30 60L60 60L60 30L30 30z"/>
<path style="fill:#ffffff; stroke:none;" d="M100 30L100 40L110 40L110 30L100 30z"/>
<path style="fill:#000000; stroke:none;" d="M210 30L210 60L240 60L240 30L210 30z"/>
<path style="fill:#ffffff; stroke:none;" d="M160 40L160 50L150 50L150 70L140 70L140 90L130 90L130 100L120 100L120 110L130 110L130 100L170 100L170 90L150 90L150 70L160 70L160 80L170 80L170 60L160 60L160 50L170 50L170 40L160 40z"/>
<path style="fill:#000000; stroke:none;" d="M10 90L10 110L30 110L30 120L40 120L40 100L30 100L30 90L10 90M50 90L50 100L80 100L80 90L50 90z"/>
<path style="fill:#ffffff; stroke:none;" d="M230 100L230 110L240 110L240 100L230 100z"/>
<path style="fill:#000000; stroke:none;" d="M10 120L10 130L20 130L20 120L10 120z"/>
<path style="fill:#ffffff; stroke:none;" d="M220 120L220 130L210 130L210 140L190 140L190 150L170 150L170 170L200 170L200 160L210 160L210 170L220 170L220 160L210 160L210 140L220 140L220 150L240 150L240 140L220 140L220 130L230 130L230 120L220 120z"/>
<path style="fill:#000000; stroke:none;" d="M10 140L10 150L30 150L30 140L10 140z"/>
<path style="fill:#ffffff; stroke:none;" d="M70 140L70 150L50 150L50 160L40 160L40 170L50 170L50 160L60 160L60 170L110 170L110 180L120 180L120 190L130 190L130 180L160 180L160 200L170 200L170 180L160 180L160 160L140 160L140 170L130 170L130 180L120 180L120 170L110 170L110 160L90 160L90 150L80 150L80 140L70 140z"/>
<path style="fill:#000000; stroke:none;" d="M70 150L70 160L80 160L80 150L70 150z"/>
<path style="fill:#ffffff; stroke:none;" d="M180 180L180 210L210 210L210 180L180 180M220 180L220 190L230 190L230 180L220 180z"/>
<path style="fill:#000000; stroke:none;" d="M10 190L10 260L80 260L80 190L10 190M190 190L190 200L200 200L200 190L190 190z"/>
<path style="fill:#ffffff; stroke:none;" d="M20 200L20 250L70 250L70 200L20 200z"/>
<path style="fill:#000000; stroke:none;" d="M30 210L30 240L60 240L60 210L30 210z"/>
<path style="fill:#ffffff; stroke:none;" d="M220 210L220 220L210 220L210 240L240 240L240 230L220 230L220 220L230 220L230 210L220 210M180 230L180 240L190 240L190 230L180 230z"/>
</svg>
